<svg xmlns="http://www.w3.org/2000/svg" version="1.1" xmlns:xlink="http://www.w3.org/1999/xlink" xmlns:svgjs="http://svgjs.dev/svgjs" width="1500" height="1500" viewBox="0 0 1500 1500"><rect width="1500" height="1500" fill="#000000"></rect><g transform="matrix(0.6666666666666666,0,0,0.6666666666666666,249.39393939393938,550.2486540603355)"><svg viewBox="0 0 396 158" data-background-color="#f9f6ed" preserveAspectRatio="xMidYMid meet" height="598" width="1500" xmlns="http://www.w3.org/2000/svg" xmlns:xlink="http://www.w3.org/1999/xlink"><g id="tight-bounds" transform="matrix(1,0,0,1,0.2400000000000091,0.16566720351249842)"><svg viewBox="0 0 395.52 157.668665592975" height="157.668665592975" width="395.52"><g><svg viewBox="0 0 674.1706579693407 268.7489583939217" height="157.668665592975" width="395.52"><g><svg viewBox="0 0 395.5199999999999 268.7489583939217" height="268.7489583939217" width="395.5199999999999"><g id="textblocktransform"><svg viewBox="0 0 395.5199999999999 268.7489583939217" height="268.7489583939217" width="395.5199999999999" id="textblock"><g><svg viewBox="0 0 395.5199999999999 144.95034636871506" height="144.95034636871506" width="395.5199999999999"><g transform="matrix(1,0,0,1,0,0)"><svg width="395.5199999999999" viewBox="2.45 -32.15 91.39 32.8" height="144.95034636871506" data-palette-color="#21272d"><g class="wordmark-text-0" data-fill-palette-color="primary" id="text-0"><path d="M4.6 0.55L4.6 0.55Q3.25 0.55 2.9-0.05 2.55-0.65 2.75-1.75L2.75-1.75Q3.5-5.45 4.05-9.8 4.6-14.15 4.6-18.55L4.6-18.55Q4.6-21.55 4.38-23.9 4.15-26.25 2.9-28.3L2.9-28.3Q2.7-28.6 2.58-28.88 2.45-29.15 2.45-29.35L2.45-29.35Q2.45-30 3.18-30.63 3.9-31.25 4.9-31.7 5.9-32.15 6.8-32.15L6.8-32.15Q8-32.15 8.53-31.35 9.05-30.55 9.15-29.38 9.25-28.2 9.25-27L9.25-27Q9.25-25.8 9.13-24.33 9-22.85 8.85-21.1L8.85-21.1Q8.6-18.8 8.35-16.07 8.1-13.35 8.1-10.4L8.1-10.4Q8.1-7.05 8.35-4.93 8.6-2.8 8.7-2.15L8.7-2.15Q8.85-1.3 8.2-0.7 7.55-0.1 6.55 0.23 5.55 0.55 4.6 0.55ZM23.65 0.45L23.65 0.45Q21.65 0.45 19.83-0.55 18-1.55 16.4-3.15 14.8-4.75 13.53-6.65 12.25-8.55 11.33-10.4 10.4-12.25 9.95-13.65L9.95-13.65Q9.5-15 9.5-16L9.5-16Q9.5-17.1 10.3-18.65L10.3-18.65Q10.95-19.85 12.2-21.55 13.45-23.25 15.08-25.1 16.7-26.95 18.48-28.55 20.25-30.15 22.05-31.15 23.85-32.15 25.4-32.15L25.4-32.15Q26.8-32.15 27.43-31.33 28.05-30.5 28.05-29.45L28.05-29.45Q28.05-28.6 27.7-27.65 27.35-26.7 26.75-26.05 26.15-25.4 25.35-25.4L25.35-25.4Q24.85-25.4 24.43-25.53 24-25.65 23.35-25.65L23.35-25.65Q22.7-25.65 21.83-25.4 20.95-25.15 19.9-24.45L19.9-24.45Q19.05-23.85 17.8-22.68 16.55-21.5 15.25-20 13.95-18.5 12.85-16.8L12.85-16.8Q13.55-15.1 14.75-13.38 15.95-11.65 17.25-10.15L17.25-10.15Q19.6-7.45 21.78-6.2 23.95-4.95 27.1-4.95L27.1-4.95Q27.75-4.95 27.98-4.65 28.2-4.35 28.2-3.7L28.2-3.7Q28.2-2.25 27.13-0.9 26.05 0.45 23.65 0.45ZM34.85-24.85L34.85-24.85Q33.45-24.9 32.6-25.7 31.75-26.5 31.75-27.95L31.75-27.95Q31.8-29.5 32.8-30.48 33.8-31.45 35.35-31.4L35.35-31.4Q36.8-31.35 37.62-30.55 38.45-29.75 38.4-28.3L38.4-28.3Q38.35-26.8 37.4-25.83 36.45-24.85 34.85-24.85ZM34.9 0.5L34.9 0.5Q33.4 0.5 32.55-0.33 31.7-1.15 31.7-3.15L31.7-3.15Q31.7-4.3 31.92-5.4 32.15-6.5 32.45-7.55L32.45-7.55Q32.8-8.65 33.02-9.8 33.25-10.95 33.25-12.25L33.25-12.25Q33.25-13.15 33-13.98 32.75-14.8 31.9-15.2L31.9-15.2Q31.25-15.55 30.77-15.93 30.3-16.3 30.3-16.9L30.3-16.9Q30.3-17.6 30.95-18.4 31.6-19.2 32.67-19.78 33.75-20.35 34.9-20.35L34.9-20.35Q36.15-20.35 36.72-19.7 37.3-19.05 37.5-18.05 37.7-17.05 37.7-16L37.7-16Q37.7-14.4 37.45-12.88 37.2-11.35 36.95-10.05L36.95-10.05Q36.75-9.1 36.65-8.3 36.55-7.5 36.55-6.8L36.55-6.8Q36.55-5.55 37.15-4.93 37.75-4.3 38.85-3.75L38.85-3.75Q39.3-3.5 39.3-3L39.3-3Q39.3-2.6 38.9-1.75 38.5-0.9 37.52-0.2 36.55 0.5 34.9 0.5ZM50.3 0.65L50.3 0.65Q46.8 0.65 44.82-1.48 42.85-3.6 42.85-7.4L42.85-7.4Q42.85-11.15 44.45-14.1 46.05-17.05 48.85-18.75 51.65-20.45 55.2-20.45L55.2-20.45Q57.59-20.45 59-19.65 60.4-18.85 60.4-17.45L60.4-17.45Q60.4-16.2 59.2-15L59.2-15Q58.75-14.55 58.02-14.18 57.3-13.8 56.9-13.8L56.9-13.8Q56.45-13.8 56.15-14.15L56.15-14.15Q55.65-14.7 54.85-15.2 54.05-15.7 52.6-15.7L52.6-15.7Q50.15-15.7 48.6-14.03 47.05-12.35 47.05-9.65L47.05-9.65Q47.05-7.2 48.45-5.7 49.85-4.2 52.15-4.2L52.15-4.2Q53.35-4.2 54.77-4.63 56.2-5.05 57.3-5.85L57.3-5.85Q57.84-6.35 58.45-6.35L58.45-6.35Q59.45-6.35 59.45-5.1L59.45-5.1Q59.45-3.45 57.8-1.95L57.8-1.95Q56.55-0.8 54.47-0.08 52.4 0.65 50.3 0.65ZM71.44 0.65L71.44 0.65Q67.99 0.65 65.92-1.23 63.84-3.1 63.84-6.75L63.84-6.75Q63.84-8.45 64.32-10.05 64.79-11.65 65.59-13.05L65.59-13.05Q64.79-12.55 64.39-12.55L64.39-12.55Q63.79-12.55 63.57-13.23 63.34-13.9 63.34-14.55L63.34-14.55Q63.34-15.7 63.82-16.38 64.29-17.05 64.74-17.4L64.74-17.4Q65.79-18.3 68.04-19.38 70.29-20.45 73.44-20.45L73.44-20.45Q77.74-20.45 80.12-18.05 82.49-15.65 82.49-11.35L82.49-11.35Q82.49-8 81.09-5.28 79.69-2.55 77.22-0.95 74.74 0.65 71.44 0.65ZM72.99-4.45L72.99-4.45Q75.49-4.45 77.22-6.03 78.94-7.6 78.94-10.2L78.94-10.2Q78.94-12.9 77.19-14.05 75.44-15.2 73.14-15.2L73.14-15.2Q72.09-15.2 71.24-15 70.39-14.8 69.64-14.5L69.64-14.5Q68.94-13.5 68.39-12.25 67.84-11 67.84-9.5L67.84-9.5Q67.84-7 69.34-5.73 70.84-4.45 72.99-4.45ZM90.49 0.45L90.49 0.45Q89.09 0.45 88.22-0.45 87.34-1.35 87.34-2.75L87.34-2.75Q87.34-4.2 88.29-5.15 89.24-6.1 90.74-6.1L90.74-6.1Q92.14-6.1 92.99-5.25 93.84-4.4 93.84-3L93.84-3Q93.84-1.5 92.89-0.53 91.94 0.45 90.49 0.45Z" fill="#ffffff" data-fill-palette-color="primary"></path></g></svg></g></svg></g><g transform="matrix(1,0,0,1,197.2330002754053,179.16964433805583)"><svg viewBox="0 0 198.28699972459464 89.5793140558659" height="89.5793140558659" width="198.28699972459464"><g transform="matrix(1,0,0,1,0,0)"><svg width="198.28699972459464" viewBox="0.05 -41.75 94.84 42.85" height="89.5793140558659" data-palette-color="#21272d"><path d="M13.75-16.95L13.75-16.95Q14.35-18.2 14.35-19.15L14.35-19.15Q14.35-19.95 13.85-19.95L13.85-19.95Q13.55-19.95 13.18-19.78 12.8-19.6 12.6-19.4L12.6-19.4 12.35-19.2Q10.8-17.85 8.47-14.28 6.15-10.7 6.15-9.7L6.15-9.7Q6.15-9.5 6.25-9.5L6.25-9.5Q6.55-9.5 7.58-10 8.6-10.5 10.53-12.35 12.45-14.2 13.75-16.95ZM11.5-5.5L11.5-5.5Q14.15-7.95 19.1-13.6L19.1-13.6Q19.25-13.75 19.35-13.75 19.45-13.75 19.45-13.55L19.45-13.55Q19.45-12.6 18.7-11.7L18.7-11.7Q15-7.6 12.15-4.85L12.15-4.85Q10.05-2.75 7.15-0.83 4.25 1.1 2.35 1.1L2.35 1.1Q0.05 1.1 0.05-2.1L0.05-2.1Q0.05-7.4 3.98-13.2 7.9-19 13.05-21.05L13.05-21.05Q15.2-21.95 16.95-21.95L16.95-21.95Q18.9-21.95 18.9-20.4L18.9-20.4Q18.9-17.5 14.8-13.75 10.7-10 5.6-8.05L5.6-8.05Q5.4-8 5.25-7.7L5.25-7.7Q4.5-5.65 4.5-4.05L4.5-4.05Q4.5-2.25 5.85-2.25L5.85-2.25Q8-2.25 11.5-5.5ZM28.9-3.15L28.9-3.15Q24.75 0.65 23.2 0.65L23.2 0.65Q22.5 0.65 22.5-0.15L22.5-0.15Q22.5-1.15 23.37-3.2 24.25-5.25 25.15-6.8L25.15-6.8 26.05-8.35Q26.25-8.7 26.25-8.8 26.25-8.9 26.15-8.9L26.15-8.9Q25.95-8.9 25.4-8.35L25.4-8.35Q23.9-6.7 21.97-4.83 20.05-2.95 18.85-1.9L18.85-1.9 17.7-0.9Q15.75 0.6 14.7 0.6L14.7 0.6Q13.6 0.6 13.6-1.1L13.6-1.1Q13.6-1.95 14.07-3.7 14.55-5.45 14.8-6.05L14.8-6.05Q15.95-8.85 17.67-11.5 19.4-14.15 21.75-16.57 24.1-19 27.22-20.5 30.35-22 33.7-22L33.7-22Q36.5-22 36.5-21.15L36.5-21.15Q36.5-20.65 35.25-20.65L35.25-20.65Q30.65-20.65 26.62-16.73 22.6-12.8 20.1-7.7L20.1-7.7Q19.4-6.3 19.4-5.35L19.4-5.35Q19.4-4.8 19.75-4.8L19.75-4.8Q20.35-4.8 21.3-5.65L21.3-5.65Q21.9-6.2 22.92-7.1 23.95-8 26.25-10.55 28.55-13.1 29.9-15.3L29.9-15.3Q30.1-15.7 30.52-16.25 30.95-16.8 32.15-17.73 33.35-18.65 34.55-18.65L34.55-18.65Q35.2-18.65 35.2-18.3L35.2-18.3Q35.2-18.2 35.05-17.95L35.05-17.95Q34.85-17.55 33.92-15.95 33-14.35 32.2-12.93 31.4-11.5 30.5-9.83 29.6-8.15 29.07-6.95 28.55-5.75 28.55-5.35L28.55-5.35Q28.55-5.05 28.8-5.05L28.8-5.05Q29.55-5.05 32.45-7.95L32.45-7.95Q34.65-10.25 37.6-13.6L37.6-13.6Q37.75-13.75 37.85-13.75 37.95-13.75 37.95-13.55L37.95-13.55Q37.95-12.6 37.2-11.7L37.2-11.7Q32.3-6.25 28.9-3.15ZM41.55-7.55L41.55-7.55Q43.65-9.65 47.1-13.6L47.1-13.6Q47.25-13.75 47.35-13.75 47.45-13.75 47.45-13.55L47.45-13.55Q47.45-12.6 46.7-11.7L46.7-11.7Q43-7.6 40.15-4.85L40.15-4.85Q34.15 0.95 32.2 0.95L32.2 0.95Q31.5 0.95 31.5 0.05L31.5 0.05Q31.5-1 32.3-3.1 33.1-5.2 33.9-6.8L33.9-6.8 34.7-8.35Q35.85-10.4 38.5-15.35 41.15-20.3 43.62-24.7 46.1-29.1 48.3-32.65L48.3-32.65 44.35-32.65Q43.85-32.65 43.85-32.9 43.85-33.15 44.25-33.4 44.65-33.65 45.1-33.65L45.1-33.65Q46.2-33.65 48.95-33.7L48.95-33.7Q51.4-37.55 53.15-39.8L53.15-39.8Q54.7-41.75 55.3-41.75L55.3-41.75Q55.65-41.75 55.65-41.3L55.65-41.3Q55.65-40.25 53.75-36.8L53.75-36.8 52.05-33.7 57.2-33.7Q57.65-33.7 57.65-33.45L57.65-33.45Q57.65-32.65 56.2-32.65L56.2-32.65 51.5-32.65Q39.95-10.75 39.35-9.7L39.35-9.7Q37.25-5.85 37.25-4.7L37.25-4.7Q37.25-4.35 37.5-4.35L37.5-4.35Q38.2-4.35 41.55-7.55ZM58.24-4.85L58.24-4.85Q52.39 0.65 50.74 0.65L50.74 0.65Q49.89 0.65 49.89-0.5 49.89-1.65 50.79-3.85 51.69-6.05 52.59-7.7L52.59-7.7 53.49-9.3Q57.29-15.95 59.24-18.85L59.24-18.85Q60.09-20.1 61.42-20.98 62.74-21.85 63.89-21.85L63.89-21.85Q64.29-21.85 64.29-21.5L64.29-21.5Q64.29-21.25 63.94-20.55L63.94-20.55Q63.34-19.45 60.99-15.3 58.64-11.15 58.19-10.3L58.19-10.3Q56.14-6.7 56.14-5.5L56.14-5.5Q56.14-5.05 56.44-5.05L56.44-5.05Q56.94-5.05 59.64-7.55L59.64-7.55Q61.74-9.65 65.19-13.6L65.19-13.6Q65.34-13.75 65.44-13.75 65.54-13.75 65.54-13.55L65.54-13.55Q65.54-12.6 64.79-11.7L64.79-11.7Q61.09-7.6 58.24-4.85ZM64.89-24.7L64.89-24.7Q63.64-24.7 63.64-26.2L63.64-26.2Q63.64-27.6 64.69-29.03 65.74-30.45 66.99-30.45L66.99-30.45Q68.49-30.45 68.49-28.75L68.49-28.75Q68.49-27.35 67.34-26.03 66.19-24.7 64.89-24.7ZM69.14-7.55L69.14-7.55Q71.24-9.65 74.69-13.6L74.69-13.6Q74.84-13.75 74.94-13.75 75.04-13.75 75.04-13.55L75.04-13.55Q75.04-12.6 74.29-11.7L74.29-11.7Q70.59-7.6 67.74-4.85L67.74-4.85Q61.74 0.95 59.79 0.95L59.79 0.95Q59.09 0.95 59.09 0.05L59.09 0.05Q59.09-1 59.89-3.1 60.69-5.2 61.49-6.8L61.49-6.8 62.29-8.35Q63.44-10.4 66.09-15.35 68.74-20.3 71.21-24.7 73.69-29.1 75.89-32.65L75.89-32.65 71.94-32.65Q71.44-32.65 71.44-32.9 71.44-33.15 71.84-33.4 72.24-33.65 72.69-33.65L72.69-33.65Q73.79-33.65 76.54-33.7L76.54-33.7Q78.99-37.55 80.74-39.8L80.74-39.8Q82.29-41.75 82.89-41.75L82.89-41.75Q83.24-41.75 83.24-41.3L83.24-41.3Q83.24-40.25 81.34-36.8L81.34-36.8 79.64-33.7 84.79-33.7Q85.24-33.7 85.24-33.45L85.24-33.45Q85.24-32.65 83.79-32.65L83.79-32.65 79.09-32.65Q67.54-10.75 66.94-9.7L66.94-9.7Q64.84-5.85 64.84-4.7L64.84-4.7Q64.84-4.35 65.09-4.35L65.09-4.35Q65.79-4.35 69.14-7.55ZM72.41-4.48Q73.54-5.85 74.94-5.85 76.34-5.85 76.34-4.15L76.34-4.15Q76.34-2.65 75.24-1.28 74.14 0.1 72.79 0.1L72.79 0.1Q71.29 0.1 71.29-1.6L71.29-1.6Q71.29-3.1 72.41-4.48ZM83.39-23.1L83.39-23.1Q84.39-25.35 85.94-28.43 87.49-31.5 88.59-33.45L88.59-33.45 89.64-35.4Q90.74-37.45 93.54-37.45L93.54-37.45Q94.89-37.45 94.89-36.7L94.89-36.7Q94.89-36.55 94.79-36.25L94.79-36.25Q94.39-35.2 93.11-33.08 91.84-30.95 89.64-27.55 87.44-24.15 86.24-22.15L86.24-22.15 78.79-10Q78.29-9.45 77.19-9.45L77.19-9.45Q76.59-9.45 76.59-9.9L76.59-9.9Q76.59-10.1 76.74-10.4L76.74-10.4Q81.09-18.05 83.39-23.1Z" opacity="1" transform="matrix(1,0,0,1,0,0)" fill="#ffffff" class="slogan-text-1" data-fill-palette-color="secondary" id="text-1"></path></svg></g></svg></g></svg></g></svg></g><g transform="matrix(1,0,0,1,429.7392979693407,12.15879919696087)"><svg viewBox="0 0 244.43135999999998 244.43135999999998" height="244.43135999999998" width="244.43135999999998"><g><svg xmlns="http://www.w3.org/2000/svg" xmlns:xlink="http://www.w3.org/1999/xlink" version="1.1" x="0" y="0" viewBox="6.98 6.497 82.422 82.422" enable-background="new 0 0 95 95" xml:space="preserve" height="244.43135999999998" width="244.43135999999998" class="icon-icon-0" data-fill-palette-color="accent" id="icon-0"><path d="M48.191 6.497C25.431 6.497 6.98 24.948 6.98 47.708 6.98 70.469 25.431 88.919 48.191 88.919 70.952 88.919 89.402 70.468 89.402 47.708S70.952 6.497 48.191 6.497M30.532 20.79L41.75 37.483 41.756 37.479 48.785 47.287 46.284 51.038 46.093 50.734 45.95 50.83 41.334 50.757C41.334 50.756 20.95 21.026 30.532 20.79M64.951 75.034C63.907 75.734 62.058 75.954 61.425 75.101L61.421 75.103 61.38 75.04 61.377 75.035 61.375 75.031 49.484 56.128 52.013 51.791 66.347 71.792 66.342 71.795C66.895 72.705 65.991 74.334 64.951 75.034M62.568 39.227C59.255 44.232 56.463 43.321 56.463 43.321L56.27 43.2 37.649 75.14C37.648 75.142 37.648 75.144 37.646 75.144 37.645 75.146 37.645 75.148 37.643 75.148L37.607 75.208 37.604 75.206C37.04 76.023 35.306 75.876 34.31 75.254 33.316 74.633 32.422 73.141 32.909 72.275L32.905 72.273 53.462 41.448 53.27 41.328S51.223 39.218 54.264 34.044C57.307 28.87 63.673 20.778 63.673 20.778L63.968 20.963 55.844 34.43C55.659 34.725 55.776 35.132 56.106 35.337 56.432 35.542 56.85 35.468 57.035 35.172L65.768 22.085 65.992 22.225 58.073 35.819C57.887 36.115 58.004 36.522 58.332 36.727 58.661 36.932 59.078 36.859 59.263 36.562L67.995 23.476 68.261 23.642 60.34 37.235C60.155 37.532 60.273 37.938 60.601 38.142 60.929 38.348 61.345 38.274 61.531 37.977L70.06 24.763 70.355 24.947C70.352 24.947 65.88 34.221 62.568 39.227" fill="#ffffff" data-fill-palette-color="accent"></path></svg></g></svg></g></svg></g><defs></defs></svg><rect width="395.52" height="157.668665592975" fill="none" stroke="none" visibility="hidden"></rect></g></svg></g></svg>